<?xml version="1.0" encoding="utf-8"?>
<!-- Generator: Adobe Illustrator 18.1.1, SVG Export Plug-In . SVG Version: 6.00 Build 0)  -->
<svg version="1.1" id="github" xmlns="http://www.w3.org/2000/svg" xmlns:xlink="http://www.w3.org/1999/xlink" x="0px" y="0px"
	 viewBox="0 0 360 504" enable-background="new 0 0 360 504" xml:space="preserve">
<circle fill="#27A9B5" cx="180" cy="252" r="172.8"/>
<path fill="#F7F7F7" d="M180,163.8c-48.7,0-88.2,39.5-88.2,88.2s39.5,88.2,88.2,88.2s88.2-39.5,88.2-88.2S228.7,163.8,180,163.8z
	 M232.4,304.4c-6.8,6.8-14.7,12.1-23.5,15.9c-2.2,0.9-4.5,1.8-6.8,2.5v-13.2c0-6.9-2.4-12.1-7.1-15.3c3-0.3,5.7-0.7,8.2-1.2
	s5.1-1.3,7.9-2.2c2.8-1,5.3-2.1,7.5-3.5c2.2-1.4,4.3-3.1,6.4-5.3c2-2.2,3.7-4.6,5.1-7.3c1.4-2.7,2.5-6,3.3-9.8
	c0.8-3.8,1.2-8,1.2-12.6c0-8.9-2.9-16.5-8.7-22.7c2.6-6.9,2.4-14.4-0.9-22.5l-2.2-0.3c-1.5-0.2-4.2,0.5-8.1,1.9
	c-3.9,1.4-8.2,3.8-13,7.1c-6.8-1.9-13.9-2.8-21.3-2.8c-7.4,0-14.5,0.9-21.2,2.8c-3-2.1-5.9-3.8-8.7-5.1c-2.7-1.4-4.9-2.3-6.5-2.8
	c-1.6-0.5-3.2-0.8-4.6-0.9c-1.4-0.1-2.3-0.1-2.7-0.1c-0.4,0.1-0.7,0.1-0.9,0.2c-3.2,8.2-3.5,15.6-0.9,22.5
	c-5.8,6.3-8.7,13.8-8.7,22.7c0,4.6,0.4,8.8,1.2,12.6c0.8,3.8,1.9,7.1,3.3,9.8c1.4,2.7,3.1,5.2,5.1,7.3c2,2.2,4.2,3.9,6.4,5.3
	c2.2,1.4,4.7,2.5,7.5,3.5c2.8,1,5.4,1.7,7.9,2.2c2.5,0.5,5.2,0.9,8.2,1.2c-4.7,3.2-7.1,8.3-7.1,15.3V323c-2.6-0.8-5.2-1.7-7.7-2.8
	c-8.8-3.7-16.7-9.1-23.5-15.9c-6.8-6.8-12.2-14.7-15.9-23.5c-3.9-9.1-5.8-18.8-5.8-28.8c0-10,2-19.7,5.8-28.8
	c3.7-8.8,9.1-16.7,15.9-23.5s14.7-12.1,23.5-15.9c9.1-3.9,18.8-5.8,28.8-5.8c10,0,19.7,2,28.8,5.8c8.8,3.7,16.7,9.1,23.5,15.9
	c6.8,6.8,12.2,14.7,15.9,23.5c3.9,9.1,5.8,18.8,5.8,28.8s-2,19.7-5.8,28.8C244.5,289.6,239.2,297.6,232.4,304.4L232.4,304.4z"/>
</svg>
