<?xml version="1.0" encoding="utf-8"?>
<!-- Generator: Adobe Illustrator 18.1.1, SVG Export Plug-In . SVG Version: 6.00 Build 0)  -->
<svg version="1.1" id="linkedin" xmlns="http://www.w3.org/2000/svg" xmlns:xlink="http://www.w3.org/1999/xlink" x="0px" y="0px"
	 viewBox="0 0 360 504" enable-background="new 0 0 360 504" xml:space="preserve">
<circle fill="#27A9B5" cx="180" cy="252" r="172.8"/>
<path fill="#F7F7F7" d="M238.6,163.8H121.4c-16.3,0-29.6,13.3-29.6,29.6v117.1c0,16.3,13.3,29.6,29.6,29.6h117.1
	c16.3,0,29.6-13.3,29.6-29.6V193.4C268.2,177.1,254.9,163.8,238.6,163.8z M157.9,307.1h-22.1v-77.2h22.1V307.1z M146.9,218.9
	c-6.1,0-11-4.9-11-11s4.9-11,11-11c6.1,0,11,4.9,11,11S153,218.9,146.9,218.9z M235.1,307.1h-22.1V263c0-6.1-4.9-11-11-11
	c-6.1,0-11,4.9-11,11v44.1H169v-77.2H191v13.7c4.5-6.2,11.5-13.7,19.3-13.7c13.7,0,24.8,12.3,24.8,27.6L235.1,307.1L235.1,307.1z"/>
</svg>
