<?xml version="1.0" encoding="utf-8"?>
<!-- Generator: Adobe Illustrator 18.1.1, SVG Export Plug-In . SVG Version: 6.00 Build 0)  -->
<svg version="1.1" id="twitter" xmlns="http://www.w3.org/2000/svg" xmlns:xlink="http://www.w3.org/1999/xlink" x="0px" y="0px"
	 viewBox="0 0 360 504" enable-background="new 0 0 360 504" xml:space="preserve">
<circle fill="#27A9B5" cx="180" cy="252" r="172.8"/>
<path fill="#F7F7F7" d="M268.2,197c-6.5,2.9-13.5,4.9-20.8,5.7c7.5-4.5,13.2-11.6,15.9-20.1c-7,4.2-14.7,7.2-23,8.8
	c-6.6-7.1-16-11.5-26.4-11.5c-20,0-36.2,16.3-36.2,36.4c0,2.9,0.3,5.6,0.9,8.3c-30.1-1.5-56.7-16-74.6-38
	c-3.1,5.4-4.9,11.6-4.9,18.3c0,12.6,6.4,23.8,16.1,30.3c-5.9-0.2-11.5-1.8-16.4-4.6c0,0.2,0,0.3,0,0.5c0,17.6,12.5,32.3,29,35.7
	c-3,0.8-6.2,1.3-9.5,1.3c-2.3,0-4.6-0.2-6.8-0.7c4.6,14.5,18,25,33.8,25.3c-12.4,9.8-28,15.6-44.9,15.6c-2.9,0-5.8-0.2-8.6-0.5
	c16,10.3,35,16.4,55.5,16.4c66.6,0,103-55.5,103-103.6c0-1.6,0-3.1-0.1-4.7C257.2,210.7,263.3,204.3,268.2,197z"/>
</svg>
